<svg version="1.1" xmlns="http://www.w3.org/2000/svg" style="display: block;" viewBox="0 0 2048 2048" width="512" height="512" preserveAspectRatio="none">
<defs>
	<linearGradient id="Gradient1" gradientUnits="userSpaceOnUse" x1="221.581" y1="674.906" x2="225.467" y2="989.019">
		<stop class="stop0" offset="0" stop-opacity="1" stop-color="rgb(211,100,180)"/>
		<stop class="stop1" offset="1" stop-opacity="1" stop-color="rgb(196,111,224)"/>
	</linearGradient>
	<linearGradient id="Gradient2" gradientUnits="userSpaceOnUse" x1="1087.43" y1="97.9977" x2="1087.57" y2="413.002">
		<stop class="stop0" offset="0" stop-opacity="1" stop-color="rgb(243,80,91)"/>
		<stop class="stop1" offset="1" stop-opacity="1" stop-color="rgb(227,91,138)"/>
	</linearGradient>
	<linearGradient id="Gradient3" gradientUnits="userSpaceOnUse" x1="959.449" y1="1710.81" x2="959.563" y2="1981.21">
		<stop class="stop0" offset="0" stop-opacity="1" stop-color="rgb(68,168,231)"/>
		<stop class="stop1" offset="1" stop-opacity="1" stop-color="rgb(18,190,230)"/>
	</linearGradient>
	<linearGradient id="Gradient4" gradientUnits="userSpaceOnUse" x1="1214.47" y1="226.036" x2="1214.52" y2="824.948">
		<stop class="stop0" offset="0" stop-opacity="1" stop-color="rgb(237,84,110)"/>
		<stop class="stop1" offset="1" stop-opacity="1" stop-color="rgb(203,106,201)"/>
	</linearGradient>
	<linearGradient id="Gradient5" gradientUnits="userSpaceOnUse" x1="958.814" y1="873.209" x2="962.443" y2="1730.89">
		<stop class="stop0" offset="0" stop-opacity="1" stop-color="rgb(217,102,227)"/>
		<stop class="stop1" offset="1" stop-opacity="1" stop-color="rgb(68,169,235)"/>
	</linearGradient>
</defs>
<path transform="translate(0,0)" fill="url(#Gradient5)" d="M 1147.09 716.412 L 1483.82 364.027 L 1576.03 267.532 C 1599.04 243.624 1623.43 201.94 1660.59 237.684 C 1680.47 256.806 1699.66 276.985 1719.19 296.5 L 1849.47 426.815 L 1970.84 548.183 C 1986.79 564.118 2040.28 613.637 2048 631.138 L 2048 648.819 C 2045.75 653.799 2041.83 660.006 2037.99 663.933 C 1987.71 715.383 1938.63 769.644 1887.74 820.358 L 1817.18 893.69 C 1812.05 899.039 1789.51 923.187 1785.1 926.119 C 1779.22 934.409 1750.69 962.133 1741.75 971.427 L 1650.13 1066.8 L 1382.65 1343.94 C 1439.59 1343.99 1430.91 1344.79 1482.39 1318.48 L 1553.61 1282.84 L 1798.67 1160.3 C 1814.81 1152.32 1830.79 1144.03 1846.91 1136.03 C 1867.11 1126.02 1892.36 1109.53 1912.03 1130.18 C 1918.03 1136.55 1921.09 1145.14 1920.46 1153.87 C 1919.2 1173.44 1903.45 1180.82 1888.09 1188.33 C 1874.71 1194.88 1861.34 1201.7 1847.99 1208.35 L 1721.78 1271.36 L 1563.56 1350.57 C 1541.42 1361.68 1502.75 1382.59 1480.91 1391.45 C 1487.78 1403.33 1494.83 1420.72 1500.33 1433.6 L 1524.83 1490.76 L 1550.23 1549.97 C 1554.83 1560.67 1559.51 1571.23 1563.67 1582.13 C 1587.5 1644.6 1509.3 1632.16 1472.01 1632.03 C 1472.05 1642.08 1472.48 1656.15 1471.91 1665.84 C 1472.18 1673.93 1472.12 1681.99 1472.12 1690.09 C 1472.06 1774.42 1472.03 1858.89 1472.15 1943.22 C 1472.18 1966.42 1466.66 1982.59 1440.51 1983.58 C 1422.34 1984.27 1403.96 1983.92 1385.8 1983.91 L 1289.2 1983.91 L 987.102 1983.9 L 650.654 1983.9 L 542.148 1983.93 C 522.257 1983.93 502.418 1984.14 482.522 1983.7 C 464.312 1983.3 450.322 1976.66 448.981 1956.63 C 447.565 1935.49 448.085 1914.25 448.099 1893.06 L 448.127 1787.57 L 448.031 1685.37 C 448.018 1671.21 447.3 1645.2 448.549 1631.85 C 438.609 1632.34 427.647 1631.7 417.862 1632.11 C 346.012 1635.11 341.125 1616.36 367.639 1555.2 L 388.563 1506.53 L 418.701 1436.37 C 424.807 1422.18 431.642 1405.14 438.655 1391.67 C 402.32 1372.62 364.155 1354.07 327.39 1335.69 L 139.194 1241.56 L 58.1925 1201.16 C 43.8715 1194.03 28.4668 1186.97 14.779 1178.83 C 6.70934 1174.03 4.18694 1168.96 0 1161.02 L 0 1142.19 C 12.7482 1116.81 31.6489 1115.48 54.7658 1127.14 C 78.9363 1139.33 103.256 1151.44 127.471 1163.55 L 276.431 1238.05 L 386.907 1293.24 C 411.973 1305.76 455.12 1324.14 472.998 1344.25 C 489.84 1343.32 510.845 1343.9 527.993 1343.93 C 505.117 1309.28 490.34 1283.99 475.676 1244.11 C 465.008 1215.2 457.189 1185.31 452.331 1154.87 C 441.035 1079.44 450.356 984.557 482.496 914.962 C 483.274 911.034 487.847 901.464 489.692 897.438 C 508.86 856.678 534.102 819.062 564.556 785.876 C 572.59 773.364 593.535 756.867 605.241 747.076 C 588.227 722.044 574.16 684.654 555.887 659.935 C 552.056 654.754 528.824 643.2 521.721 639.319 L 442.538 596.1 C 430.574 589.594 394.481 572.045 388.146 562.296 C 364.867 526.476 409.317 509.434 433.566 496.352 L 511.263 453.883 C 521.662 448.203 541.774 438.181 550.835 431.951 L 552.49 430.797 C 560.928 424.982 574.051 396.879 579.808 386.289 L 617.771 316.756 C 625.331 302.84 632.809 288.704 640.657 274.912 C 646.11 265.329 651.886 259.976 662.674 257.249 C 670.536 255.262 685.023 256.872 690.819 262.438 C 702.763 273.908 712.219 295.262 720.118 309.842 L 757.389 377.635 C 765.3 392.203 773.112 408.022 781.7 422.102 C 789.714 435.239 814.716 445.522 829.048 453.195 L 903.546 494.014 C 915.726 500.726 928.586 506.714 940.209 514.363 C 949.506 520.481 956.583 526.489 958.671 538.061 C 960.389 547.576 957.917 557.647 951.421 564.91 C 942.155 575.269 839.979 628.669 823.522 637.631 C 818.451 640.393 805.869 644.854 802.907 649.113 C 806.712 649.184 812.111 647.887 816.02 647.099 C 835.763 643.123 855.129 641.216 875.255 640.429 C 951.525 636.803 1027.46 652.678 1095.89 686.554 C 1114.65 695.948 1129.47 705.378 1147.09 716.412 z M 610.617 1344.14 C 674.137 1342.84 740.752 1343.88 804.605 1343.81 C 799.023 1324.52 798.578 1299.63 805.003 1280.46 C 813.236 1256.34 830.791 1236.51 853.745 1225.42 C 876.659 1214.37 905.6 1213.17 929.495 1221.75 C 953.734 1230.45 973.396 1248.63 983.969 1272.11 C 993.252 1292.5 995.151 1322.98 987.244 1343.92 L 1181.52 1343.81 C 1185.16 1340.3 1192.22 1331.17 1195.58 1326.95 C 1219.96 1296.48 1239.52 1262.45 1253.58 1226.05 C 1283.08 1149.95 1286.28 1062.86 1265.09 984.352 C 1259.05 961.984 1250.67 941.636 1241.36 920.519 C 1240.68 919.83 1226.94 894.702 1225.35 891.698 C 1208.72 860.398 1186.66 839.18 1163.77 813.102 L 1162.21 807.607 L 1166.44 805.468 C 1167.55 808.579 1167.88 809.113 1170.57 810.665 C 1172.99 808.554 1169.4 808.153 1170.56 803.879 C 1175.98 810.073 1189.71 800.509 1197.82 801.129 C 1199.62 801.266 1209.27 793.582 1211.93 793.337 C 1220.79 792.521 1225.74 802.771 1232.88 803.927 C 1236.38 803.275 1236.91 802.333 1239.46 799.869 L 1251.44 815.148 C 1260.64 805.208 1269.69 795.037 1279.7 785.926 L 1282.15 787.54 C 1281.51 789.783 1281.41 789.82 1281.55 792.178 L 1282.6 793.012 C 1292.73 787.703 1303.55 795.519 1312.05 800.722 C 1322.45 807.079 1328.41 807.954 1339.87 805.513 C 1340.08 804.695 1340.28 803.876 1340.49 803.057 C 1365.89 804.485 1378.58 804.707 1401.61 792.437 C 1402.47 791.976 1405.33 796.296 1407.41 794.513 L 1406.25 791.019 C 1408.22 789.453 1409.48 790.12 1412.76 790.165 C 1447.09 824.496 1487.65 863.325 1520.32 898.549 C 1549.36 865.726 1590.01 826.6 1621.81 795.332 L 1627.51 795.478 C 1625.79 797.537 1625.65 797.312 1624.81 799.813 C 1630.99 799.041 1633.5 794.549 1639.97 793.951 C 1648.67 793.146 1655.1 800.332 1662.07 801.728 C 1669.29 803.174 1680.79 801.635 1688.41 801.697 C 1692.07 807.458 1686.39 811.127 1688.6 815.798 C 1694.31 815.108 1690.17 812.347 1695.69 814.24 C 1685.81 825.103 1672.54 837.75 1661.64 847.499 C 1670.02 856.663 1679.58 865.277 1688.46 874.046 C 1698.23 883.691 1707.78 894.223 1717.8 903.502 L 1719.24 902.323 C 1729.79 899.379 1737.59 883.574 1745.22 882.957 C 1747.22 884.49 1753.24 889.718 1755.73 889.348 C 1764.71 888.011 1777.89 883.751 1786.78 883.59 C 1793.28 883.474 1789.9 889.462 1800.33 881.307 C 1809.78 880.319 1806.3 889.741 1815.38 881.438 L 1817.15 882.958 C 1816.06 885.593 1816.46 884.744 1814.51 886.999 L 1814.46 890.135 C 1817.53 888.76 1818.09 887.787 1820.64 885.471 C 1813.3 895.46 1794.52 912.09 1785.6 922.564 C 1785.43 923.749 1785.27 924.934 1785.1 926.119 C 1789.51 923.187 1812.05 899.039 1817.18 893.69 L 1887.74 820.358 C 1938.63 769.644 1987.71 715.383 2037.99 663.933 C 2041.83 660.006 2045.75 653.799 2048 648.819 L 2048 631.138 C 2040.28 613.637 1986.79 564.118 1970.84 548.183 L 1849.47 426.815 L 1719.19 296.5 C 1699.66 276.985 1680.47 256.806 1660.59 237.684 C 1623.43 201.94 1599.04 243.624 1576.03 267.532 L 1483.82 364.027 L 1147.09 716.412 C 1129.47 705.378 1114.65 695.948 1095.89 686.554 C 1027.46 652.678 951.525 636.803 875.255 640.429 C 855.129 641.216 835.763 643.123 816.02 647.099 C 812.111 647.887 806.712 649.184 802.907 649.113 C 805.869 644.854 818.451 640.393 823.522 637.631 C 839.979 628.669 942.155 575.269 951.421 564.91 C 957.917 557.647 960.389 547.576 958.671 538.061 C 956.583 526.489 949.506 520.481 940.209 514.363 C 928.586 506.714 915.726 500.726 903.546 494.014 L 829.048 453.195 C 814.716 445.522 789.714 435.239 781.7 422.102 C 773.112 408.022 765.3 392.203 757.389 377.635 L 720.118 309.842 C 712.219 295.262 702.763 273.908 690.819 262.438 C 685.023 256.872 670.536 255.262 662.674 257.249 C 651.886 259.976 646.11 265.329 640.657 274.912 C 632.809 288.704 625.331 302.84 617.771 316.756 L 579.808 386.289 C 574.051 396.879 560.928 424.982 552.49 430.797 L 550.835 431.951 C 541.774 438.181 521.662 448.203 511.263 453.883 L 433.566 496.352 C 409.317 509.434 364.867 526.476 388.146 562.296 C 394.481 572.045 430.574 589.594 442.538 596.1 L 521.721 639.319 C 528.824 643.2 552.056 654.754 555.887 659.935 C 574.16 684.654 588.227 722.044 605.241 747.076 C 593.535 756.867 572.59 773.364 564.556 785.876 C 566.541 787.635 566.532 788.286 567.133 790.844 C 571.464 793.103 574.246 791.019 578.597 789.161 C 581.658 791.127 581.736 792.439 582.293 792.826 C 590.198 798.317 606.509 802.302 615.483 803.988 C 619.744 811.681 611.897 815.312 611.227 824.838 C 612.606 826.991 612.299 826.588 613.977 828.383 C 581.893 865.332 568.072 886.04 546.513 930.101 C 485.023 1078.52 507.81 1221.32 610.617 1344.14 z M 1106.51 1726.86 C 1101.25 1730.42 1086.18 1738.28 1079.85 1741.84 L 1013.13 1778.84 L 935.65 1822.03 C 917.843 1831.99 884.652 1853.35 864.504 1855.79 C 849.469 1857.6 834.776 1846.03 833.311 1830.12 C 831.974 1815.6 832.038 1800.83 832.035 1785.48 L 832.226 1711.38 C 830.914 1690.15 831.994 1654.28 832.159 1632 L 512.008 1632.03 C 512.127 1640.42 512.163 1648.19 511.905 1656.57 C 513.57 1742.01 512.256 1834.48 512.063 1920.31 C 581.261 1918.94 654.006 1920.04 723.413 1920.04 L 1120.95 1920.07 L 1317.74 1920.07 L 1375.77 1920 C 1384.32 1920 1400.32 1919.58 1408.24 1920.68 L 1408.11 1758.67 C 1408.1 1729.56 1407.51 1698.33 1408.18 1669.36 C 1407.98 1656.91 1407.97 1644.45 1408.16 1632 L 1245.53 1631.98 C 1227.09 1631.98 1180.14 1630.86 1163.28 1632.9 C 1172.8 1638.94 1180.78 1644.78 1183.66 1656.64 C 1185.61 1664.99 1184.03 1673.78 1179.27 1680.93 C 1171.29 1693.02 1121.74 1719.82 1106.51 1726.86 z M 1322.5 1567.91 L 1487.4 1567.87 C 1466.85 1523.44 1448.85 1477.29 1429.01 1432.5 C 1425.46 1424.47 1421.8 1415.96 1418.71 1407.77 C 1374.85 1408.8 1328.15 1408.05 1284.12 1408.05 L 1042 1408.05 L 501.55 1407.95 C 486.806 1443.31 471.858 1478.6 456.707 1513.79 C 452.15 1524.46 437.936 1559.26 432.676 1567.79 L 701.034 1567.91 C 744.043 1567.91 789.445 1567.21 832.29 1568.22 C 831.991 1544.38 830.607 1519.29 833.444 1495.77 C 834.195 1489.54 840.774 1479.43 846.545 1476.53 C 875.786 1461.86 916.084 1498.14 942.086 1510.05 C 963.034 1519.65 979.944 1532.35 1000.57 1542.29 C 1008.43 1546.43 1039.33 1566.02 1045.56 1566.72 C 1066.3 1569.05 1106.22 1567.99 1126.55 1567.97 L 1322.5 1567.91 z M 1568.01 940.39 C 1567.17 942.62 1567.01 944.635 1568.77 946.516 C 1586.41 965.359 1606.59 982.356 1623.24 1002.13 C 1634.29 987.724 1658.84 962.621 1672.18 950.08 C 1667.52 945.875 1665.05 943.301 1660.89 938.622 C 1647.55 926.572 1627.99 906.903 1615.95 893.348 C 1608.39 902.244 1576.54 935.448 1568.01 940.39 z M 895.895 1717.32 C 896.909 1729.28 896.188 1757.15 896.195 1770.04 C 914.335 1757.2 941.778 1743.27 961.499 1732 C 976.075 1723.67 995.303 1712.74 1009.94 1705.56 C 1034.21 1690.88 1059.92 1677.94 1084.74 1664.07 C 1041.57 1638.88 996.923 1615.53 953.515 1590.78 C 937.333 1581.56 910.597 1568.16 896.184 1558.55 L 896.121 1662.1 C 896.111 1679.39 896.626 1700.39 895.895 1717.32 z M 1434.98 1196.29 C 1452.03 1176.97 1465.15 1163.72 1483.64 1145.66 C 1469.35 1131.69 1455.21 1117.58 1441.21 1103.31 C 1438.92 1100.98 1425.2 1086.67 1423.61 1085.57 C 1417.36 1093.77 1375.6 1132.75 1375.69 1136.94 C 1376.94 1139.04 1431.81 1194.27 1434.98 1196.29 z M 1577.39 1047.67 L 1538.27 1008.43 C 1535.44 1005.55 1522.16 991.547 1519.63 989.649 C 1513.3 997.843 1472.88 1035.94 1471.72 1039.42 C 1474.92 1045.61 1521.21 1091.58 1529.44 1098.67 C 1546.28 1078.93 1560.09 1065.92 1577.39 1047.67 z M 1277.63 1323.44 C 1272.93 1331.08 1269.35 1336.76 1264.01 1343.92 L 1286.25 1343.72 L 1296.58 1343.47 C 1294.05 1340.72 1279.6 1324.49 1277.63 1323.44 z M 1309.58 914.294 C 1332.89 966.628 1341.22 1018 1344.26 1074.58 C 1384.39 1032.29 1424.98 990.802 1467.24 950.593 C 1469.36 948.574 1472.18 946.113 1472.42 943.304 L 1469.8 939.887 C 1463.22 933.754 1456.24 926.769 1450.01 920.273 C 1415.58 884.358 1377.4 850.097 1343.99 813.398 C 1333.19 825.704 1299.55 859.812 1287.67 869.297 C 1295.67 884.373 1302.98 898.469 1309.58 914.294 z M 1389.45 1243.18 C 1376.4 1230.72 1363.6 1218 1351.06 1205.04 C 1349.06 1203.01 1334.71 1188.34 1333.25 1187.41 C 1327.4 1211.88 1319.96 1240.45 1308.35 1262.88 C 1318.71 1273.02 1330.08 1284.78 1340.51 1294.51 L 1351.14 1282.4 C 1363.66 1269.09 1376.44 1256.01 1389.45 1243.18 z M 895.129 1280.53 C 877.627 1281.03 863.894 1295.71 864.553 1313.21 C 865.212 1330.71 880.01 1344.31 897.501 1343.5 C 914.777 1342.7 928.177 1328.12 927.526 1310.84 C 926.875 1293.56 912.416 1280.03 895.129 1280.53 z"/>
<path transform="translate(0,0)" fill="rgb(195,110,215)" d="M 888.848 768.029 C 941.839 764.003 988.067 803.682 992.119 856.671 C 996.172 909.66 956.515 955.908 903.528 959.987 C 850.504 964.069 804.216 924.378 800.161 871.352 C 796.106 818.325 835.819 772.057 888.848 768.029 z M 904.454 894.38 C 920.896 889.834 930.716 873.008 926.586 856.457 C 922.455 839.906 905.882 829.666 889.232 833.378 C 878.083 835.864 869.158 844.201 865.919 855.155 C 862.681 866.11 865.637 877.959 873.643 886.108 C 881.649 894.257 893.444 897.424 904.454 894.38 z"/>
<path transform="translate(0,0)" fill="rgb(195,110,215)" d="M 664.878 991.959 C 718.065 987.911 764.4 1027.89 768.184 1081.1 C 771.967 1134.31 731.756 1180.44 678.531 1183.96 C 625.679 1187.45 579.937 1147.59 576.18 1094.75 C 572.423 1041.92 612.063 995.979 664.878 991.959 z M 671.498 1119.51 C 688.771 1119.79 703.038 1106.09 703.459 1088.82 C 703.88 1071.55 690.297 1057.17 673.032 1056.61 C 655.565 1056.04 640.981 1069.82 640.555 1087.29 C 640.129 1104.76 654.024 1119.23 671.498 1119.51 z"/>
<path transform="translate(0,0)" fill="rgb(195,110,215)" d="M 1112.33 992.041 C 1165.39 987.722 1211.88 1027.3 1216.09 1080.36 C 1220.29 1133.43 1180.62 1179.84 1127.54 1183.93 C 1074.62 1188.01 1028.39 1148.48 1024.2 1095.57 C 1020.01 1042.66 1059.43 996.348 1112.33 992.041 z M 1127.45 1118.65 C 1144.18 1114.59 1154.53 1097.85 1150.7 1081.07 C 1146.86 1064.29 1130.25 1053.72 1113.42 1057.33 C 1102.34 1059.71 1093.4 1067.87 1090.01 1078.69 C 1086.63 1089.51 1089.33 1101.32 1097.08 1109.59 C 1104.83 1117.86 1116.43 1121.33 1127.45 1118.65 z"/>
<path transform="translate(0,0)" fill="rgb(195,110,215)" d="M 891.286 1056.16 C 908.863 1053.53 925.246 1065.63 927.916 1083.2 C 930.586 1100.77 918.535 1117.18 900.973 1119.9 C 883.344 1122.63 866.851 1110.52 864.171 1092.88 C 861.491 1075.25 873.643 1058.79 891.286 1056.16 z"/>
<path transform="translate(0,0)" fill="url(#Gradient4)" d="M 1147.09 716.412 L 1483.82 364.027 L 1576.03 267.532 C 1599.04 243.624 1623.43 201.94 1660.59 237.684 C 1680.47 256.806 1699.66 276.985 1719.19 296.5 L 1849.47 426.815 L 1970.84 548.183 C 1986.79 564.118 2040.28 613.637 2048 631.138 L 2048 648.819 C 2045.75 653.799 2041.83 660.006 2037.99 663.933 C 1987.71 715.383 1938.63 769.644 1887.74 820.358 L 1817.18 893.69 C 1812.05 899.039 1789.51 923.187 1785.1 926.119 C 1785.27 924.934 1785.43 923.749 1785.6 922.564 C 1794.52 912.09 1813.3 895.46 1820.64 885.471 C 1818.09 887.787 1817.53 888.76 1814.46 890.135 L 1814.51 886.999 C 1816.46 884.744 1816.06 885.593 1817.15 882.958 L 1815.38 881.438 C 1806.3 889.741 1809.78 880.319 1800.33 881.307 C 1789.9 889.462 1793.28 883.474 1786.78 883.59 C 1777.89 883.751 1764.71 888.011 1755.73 889.348 C 1753.24 889.718 1747.22 884.49 1745.22 882.957 C 1737.59 883.574 1729.79 899.379 1719.24 902.323 C 1726.15 892.462 1756.08 862.608 1765.79 852.449 C 1752.28 837.723 1735.74 821.91 1721.45 807.482 C 1718.28 804.157 1715.14 800.806 1712.03 797.427 C 1709.19 800.523 1698.33 812.563 1695.69 814.24 C 1690.17 812.347 1694.31 815.108 1688.6 815.798 C 1686.39 811.127 1692.07 807.458 1688.41 801.697 C 1680.79 801.635 1669.29 803.174 1662.07 801.728 C 1655.1 800.332 1648.67 793.146 1639.97 793.951 C 1633.5 794.549 1630.99 799.041 1624.81 799.813 C 1625.65 797.312 1625.79 797.537 1627.51 795.478 L 1621.81 795.332 C 1634.16 782.616 1655.04 764.168 1665.45 751.727 C 1623.1 707.911 1578.12 665.727 1535.91 621.478 C 1505.72 655.557 1468.99 687.542 1437.57 720.778 C 1422.97 736.225 1405.47 753.479 1389.71 767.556 C 1394.74 773.55 1406.58 784.295 1412.76 790.165 C 1409.48 790.12 1408.22 789.453 1406.25 791.019 L 1407.41 794.513 C 1405.33 796.296 1402.47 791.976 1401.61 792.437 C 1378.58 804.707 1365.89 804.485 1340.49 803.057 C 1340.28 803.876 1340.08 804.695 1339.87 805.513 C 1328.41 807.954 1322.45 807.079 1312.05 800.722 C 1303.55 795.519 1292.73 787.703 1282.6 793.012 L 1281.55 792.178 C 1281.41 789.82 1281.51 789.783 1282.15 787.54 L 1279.7 785.926 C 1285.17 780.43 1292.5 773.566 1297.53 767.981 C 1284.08 753.875 1251.68 723.663 1241.62 710.6 C 1231.23 723.238 1209.88 744.946 1197.96 756.538 C 1209.7 768.412 1230.11 786.503 1239.46 799.869 C 1236.91 802.333 1236.38 803.275 1232.88 803.927 C 1225.74 802.771 1220.79 792.521 1211.93 793.337 C 1209.27 793.582 1199.62 801.266 1197.82 801.129 C 1189.71 800.509 1175.98 810.073 1170.56 803.879 C 1169.4 808.153 1172.99 808.554 1170.57 810.665 C 1167.88 809.113 1167.55 808.579 1166.44 805.468 L 1162.21 807.607 L 1163.77 813.102 C 1153.83 804.776 1143.36 794.307 1133.3 786.391 C 1119.03 775.156 1100.98 763.145 1085.24 754.197 C 996.341 703.776 890.979 690.981 792.6 718.66 C 778.063 722.678 756.96 727.314 745.018 736.442 C 736.741 742.769 712.871 791.604 705.845 803.973 C 699.908 815.631 694.41 825.706 681.057 830.244 C 660.954 837.076 642.517 823.853 636.963 804.503 C 629.426 812.831 621.364 820.104 613.977 828.383 C 612.299 826.588 612.606 826.991 611.227 824.838 C 611.897 815.312 619.744 811.681 615.483 803.988 C 606.509 802.302 590.198 798.317 582.293 792.826 C 581.736 792.439 581.658 791.127 578.597 789.161 C 574.246 791.019 571.464 793.103 567.133 790.844 C 566.532 788.286 566.541 787.635 564.556 785.876 C 572.59 773.364 593.535 756.867 605.241 747.076 C 588.227 722.044 574.16 684.654 555.887 659.935 C 552.056 654.754 528.824 643.2 521.721 639.319 L 442.538 596.1 C 430.574 589.594 394.481 572.045 388.146 562.296 C 364.867 526.476 409.317 509.434 433.566 496.352 L 511.263 453.883 C 521.662 448.203 541.774 438.181 550.835 431.951 L 552.49 430.797 C 560.928 424.982 574.051 396.879 579.808 386.289 L 617.771 316.756 C 625.331 302.84 632.809 288.704 640.657 274.912 C 646.11 265.329 651.886 259.976 662.674 257.249 C 670.536 255.262 685.023 256.872 690.819 262.438 C 702.763 273.908 712.219 295.262 720.118 309.842 L 757.389 377.635 C 765.3 392.203 773.112 408.022 781.7 422.102 C 789.714 435.239 814.716 445.522 829.048 453.195 L 903.546 494.014 C 915.726 500.726 928.586 506.714 940.209 514.363 C 949.506 520.481 956.583 526.489 958.671 538.061 C 960.389 547.576 957.917 557.647 951.421 564.91 C 942.155 575.269 839.979 628.669 823.522 637.631 C 818.451 640.393 805.869 644.854 802.907 649.113 C 806.712 649.184 812.111 647.887 816.02 647.099 C 835.763 643.123 855.129 641.216 875.255 640.429 C 951.525 636.803 1027.46 652.678 1095.89 686.554 C 1114.65 695.948 1129.47 705.378 1147.09 716.412 z M 1757.65 751.525 C 1773.11 768.304 1791.09 783.672 1807.14 801.283 C 1809.78 804.24 1808.91 804.238 1811.94 804.692 L 1816.94 800.835 C 1823.42 791.921 1851.73 763.394 1861.04 754.263 C 1845.62 740.866 1822.01 716.577 1807.88 701.417 C 1796.01 714.912 1771.49 739.531 1757.65 751.525 z M 1473.87 468.152 C 1486.75 480.346 1520.35 513.815 1534.8 528.482 C 1534.91 528.595 1537.28 528.92 1537.59 528.974 C 1553.32 511.306 1571.76 495.577 1585.56 479.976 C 1579.03 473.169 1525.56 418.361 1522 416.61 C 1511.27 431.138 1487.44 454.551 1473.87 468.152 z M 1428.62 514.603 C 1421.16 523.994 1388.53 559.404 1379.61 565.69 C 1382.24 568.341 1389.59 575.974 1392.09 577.794 C 1400.58 583.974 1434.8 623.665 1441.38 625.419 C 1457.94 605.858 1474.72 592.811 1489.67 575.964 L 1446.67 532.609 C 1444 529.914 1430.66 516.068 1428.62 514.603 z M 1581.68 575.46 C 1586.72 580.906 1610.87 604.944 1615.45 608.808 C 1626.14 617.828 1708.13 704.449 1713.31 705.415 C 1729.85 686.561 1748.01 668.905 1765.75 651.144 L 1837.71 579.348 C 1848.11 569.044 1864.43 554.155 1873.72 543.98 L 1780.71 450.843 L 1757.29 427.254 C 1754.37 424.275 1746.45 414.997 1742.87 414.47 C 1716.85 443.539 1681.64 476.441 1653.58 504.833 C 1634.02 524.622 1601.39 558.867 1581.68 575.46 z M 1919.7 589.713 C 1905.13 605.991 1869.98 641.424 1853.67 655.51 C 1869.21 672.364 1889.25 690.683 1905.97 708.2 C 1924.75 685.992 1950.3 661.814 1970.72 640.549 C 1958.2 629.187 1946.25 615.833 1934.12 603.972 C 1930.66 600.589 1923.21 592.382 1919.7 589.713 z M 1345.35 721.42 C 1361.65 702.671 1378.25 688.851 1393.58 671.938 C 1380.54 658.625 1367.4 645.4 1354.18 632.264 C 1349.19 627.254 1339.13 616.451 1334.23 612.458 C 1328.45 622.384 1288.51 659.799 1288.25 665.034 C 1290.28 668.358 1299.53 678.444 1302.59 680.42 C 1311.47 686.156 1338.11 719.386 1345.35 721.42 z M 1631.9 302.416 C 1625.71 310.274 1574.6 364.211 1567.51 369.569 C 1573.95 375.868 1629.79 432.628 1632.49 433.01 C 1632.86 433.062 1633.23 432.983 1633.6 432.97 C 1646.85 417.807 1659.81 404.931 1674.26 390.886 C 1680.88 384.444 1691.62 374.624 1697.6 367.908 C 1691.98 362.118 1633.88 303.204 1631.9 302.416 z M 670.91 731.92 C 684.462 707.331 697.884 682.67 711.175 657.939 C 718.417 644.587 727.36 623.517 737.375 613.04 C 748.657 601.237 840.808 553.24 860.24 544.098 C 841.792 535.743 819.387 522.473 801.017 512.133 C 786.567 504 746.041 484.649 736.37 473.316 C 722.584 457.161 711.293 425.936 699.16 407.662 C 693.58 398.457 675.11 361.149 670.074 355.647 C 661.958 373.39 614 465.206 603.325 475.737 C 591.085 487.811 568.408 497.313 553.284 505.518 C 529.704 518.311 506.187 531.3 482.399 543.699 C 506.162 557.339 593.036 600.115 605.685 614.676 C 617.148 627.871 631.224 659.313 640.343 675.755 C 645.602 685.239 666.091 726.974 670.91 731.92 z"/>
<path transform="translate(0,0)" fill="rgb(195,110,215)" d="M 1816.94 800.835 C 1822.6 798.407 1822.44 796.326 1826.62 794.028 L 1824.33 799.095 C 1826.89 799.354 1839.34 792.699 1843.56 791.447 L 1842.76 796.403 C 1845.61 796.551 1846.16 794.082 1846.94 794.364 C 1853.03 796.558 1859.74 800.916 1865.87 802.55 C 1871.77 804.124 1882.05 802.34 1887.36 804.719 C 1888.89 808.596 1886.18 812.026 1884.19 815.537 C 1886.4 817.862 1886.65 817.597 1887.74 820.358 L 1817.18 893.69 C 1812.05 899.039 1789.51 923.187 1785.1 926.119 C 1785.27 924.934 1785.43 923.749 1785.6 922.564 C 1794.52 912.09 1813.3 895.46 1820.64 885.471 C 1818.09 887.787 1817.53 888.76 1814.46 890.135 L 1814.51 886.999 C 1816.46 884.744 1816.06 885.593 1817.15 882.958 L 1815.38 881.438 C 1806.3 889.741 1809.78 880.319 1800.33 881.307 C 1789.9 889.462 1793.28 883.474 1786.78 883.59 C 1777.89 883.751 1764.71 888.011 1755.73 889.348 C 1753.24 889.718 1747.22 884.49 1745.22 882.957 C 1737.59 883.574 1729.79 899.379 1719.24 902.323 C 1726.15 892.462 1756.08 862.608 1765.79 852.449 C 1752.28 837.723 1735.74 821.91 1721.45 807.482 C 1722.34 804.834 1722.09 805.539 1723.67 803.144 C 1728.04 803.87 1725.7 806.464 1731.04 809.137 L 1732.5 807.971 L 1731.33 806.69 L 1732.11 805.742 C 1729.88 802.828 1728.44 801.303 1729.62 797.854 C 1743.63 803.398 1761.22 801.372 1775.88 797.747 C 1786.87 795.029 1796.55 802.554 1807.14 801.283 C 1809.78 804.24 1808.91 804.238 1811.94 804.692 L 1816.94 800.835 z"/>
<path transform="translate(0,0)" fill="rgb(195,110,215)" d="M 636.963 804.503 L 635.682 803.641 C 635.596 801.106 636.204 800.641 637.411 798.302 L 639.498 797.711 C 650.087 801.969 663.693 799.098 675.003 799.546 C 683.937 799.9 689.391 794.713 697.594 794.351 C 702.668 794.126 697.441 799.545 701.042 803.422 C 702.706 801.605 701.758 802.192 703.754 801.459 L 705.845 803.973 C 699.908 815.631 694.41 825.706 681.057 830.244 C 660.954 837.076 642.517 823.853 636.963 804.503 z"/>
<path transform="translate(0,0)" fill="url(#Gradient3)" d="M 448.549 1631.85 C 448.817 1632.17 449.136 1632.46 449.353 1632.82 C 452.348 1637.79 450.48 1716.16 450.532 1729.83 C 451.685 1725.45 451.032 1720.58 452.57 1717.26 L 453.8 1716.94 C 454.869 1720.44 455.532 1723.94 458.005 1726.53 C 462.203 1727.64 489.848 1715.46 496.35 1714.32 C 503.186 1713.13 498.547 1715.16 503.377 1714.75 L 505.596 1712.63 L 508.001 1713.06 C 513.777 1699.48 507.538 1666.59 511.905 1656.57 C 513.57 1742.01 512.256 1834.48 512.063 1920.31 C 581.261 1918.94 654.006 1920.04 723.413 1920.04 L 1120.95 1920.07 L 1317.74 1920.07 L 1375.77 1920 C 1384.32 1920 1400.32 1919.58 1408.24 1920.68 L 1408.11 1758.67 C 1408.1 1729.56 1407.51 1698.33 1408.18 1669.36 C 1412.39 1681.55 1410.13 1714.63 1410.55 1729.67 C 1410.89 1724.83 1410.57 1721.07 1413.21 1717.18 L 1414.39 1717.33 C 1414.96 1722.15 1416.37 1725.14 1419.48 1728.84 C 1420.18 1727.47 1420.44 1726.24 1421.52 1725.78 C 1423.99 1724.73 1426.84 1725.21 1429.74 1724.62 C 1433 1723.96 1434.7 1722.64 1437.76 1721.88 C 1442.68 1720.67 1451.43 1721.4 1455.04 1717.69 C 1456.64 1716.04 1455.93 1716.51 1458.34 1715.4 C 1462.4 1717.06 1462.59 1717.14 1466.92 1717.3 C 1474.23 1709.97 1467.08 1674.85 1471.91 1665.84 C 1472.18 1673.93 1472.12 1681.99 1472.12 1690.09 C 1472.06 1774.42 1472.03 1858.89 1472.15 1943.22 C 1472.18 1966.42 1466.66 1982.59 1440.51 1983.58 C 1422.34 1984.27 1403.96 1983.92 1385.8 1983.91 L 1289.2 1983.91 L 987.102 1983.9 L 650.654 1983.9 L 542.148 1983.93 C 522.257 1983.93 502.418 1984.14 482.522 1983.7 C 464.312 1983.3 450.322 1976.66 448.981 1956.63 C 447.565 1935.49 448.085 1914.25 448.099 1893.06 L 448.127 1787.57 L 448.031 1685.37 C 448.018 1671.21 447.3 1645.2 448.549 1631.85 z"/>
<path transform="translate(0,0)" fill="rgb(195,110,215)" d="M 1251.44 815.148 C 1260.64 805.208 1269.69 795.037 1279.7 785.926 L 1282.15 787.54 C 1281.51 789.783 1281.41 789.82 1281.55 792.178 L 1282.6 793.012 C 1292.73 787.703 1303.55 795.519 1312.05 800.722 C 1322.45 807.079 1328.41 807.954 1339.87 805.513 C 1340.08 804.695 1340.28 803.876 1340.49 803.057 C 1365.89 804.485 1378.58 804.707 1401.61 792.437 C 1402.47 791.976 1405.33 796.296 1407.41 794.513 L 1406.25 791.019 C 1408.22 789.453 1409.48 790.12 1412.76 790.165 C 1447.09 824.496 1487.65 863.325 1520.32 898.549 C 1549.36 865.726 1590.01 826.6 1621.81 795.332 L 1627.51 795.478 C 1625.79 797.537 1625.65 797.312 1624.81 799.813 C 1630.99 799.041 1633.5 794.549 1639.97 793.951 C 1648.67 793.146 1655.1 800.332 1662.07 801.728 C 1669.29 803.174 1680.79 801.635 1688.41 801.697 C 1692.07 807.458 1686.39 811.127 1688.6 815.798 C 1694.31 815.108 1690.17 812.347 1695.69 814.24 C 1685.81 825.103 1672.54 837.75 1661.64 847.499 C 1670.02 856.663 1679.58 865.277 1688.46 874.046 C 1698.23 883.691 1707.78 894.223 1717.8 903.502 L 1718.07 905.024 C 1709.22 904.21 1703.36 887.994 1695.95 887.663 C 1694.21 890.393 1695.79 893.613 1696.77 896.753 C 1694.81 898.683 1695.92 898.335 1693.65 898.567 C 1693.15 897.559 1692.92 896.887 1692.53 895.838 L 1690.14 896.82 C 1675.09 882.831 1677.8 884.017 1657.45 885.953 C 1643.27 887.302 1635.48 884.554 1621.93 893.005 C 1621.96 901.866 1657.07 924.971 1660.89 938.622 C 1647.55 926.572 1627.99 906.903 1615.95 893.348 C 1608.39 902.244 1576.54 935.448 1568.01 940.39 C 1570.15 931.12 1604.31 909.878 1604.04 899.302 L 1602.96 901.489 C 1600.84 897.661 1600.23 897.016 1596.12 897.33 C 1592.82 899.794 1588.76 902.74 1584.53 901.366 C 1584.65 897.016 1589.19 894.484 1589.94 889.663 C 1589.41 889.632 1588.09 889.534 1587.75 889.634 C 1578.41 892.362 1573.23 884.101 1564.2 883.085 C 1560.65 882.685 1556.01 885.658 1553.14 885.021 C 1550.26 884.378 1547.96 884.505 1544.86 884.399 L 1544.18 883.136 C 1545.06 882.372 1548.77 878.915 1548.95 878.062 L 1547.39 876.756 C 1541.92 876.814 1528.91 896.728 1521.11 898.853 C 1512.19 897.523 1501.71 882.436 1494.84 875.642 C 1492.74 876.048 1493.43 876.062 1491.32 875.842 C 1490.65 874.253 1490.01 872.797 1489.28 871.235 C 1486.32 871.863 1487.64 871.151 1485.67 874.146 C 1483.48 872.001 1484.3 872.264 1481.7 871.259 C 1476.23 880.699 1470.84 869.981 1465.78 873.317 C 1451.54 882.698 1451.26 894.419 1430.32 881.002 L 1429.08 880.199 L 1427.58 880.614 L 1427.26 882.088 C 1430.13 884.682 1431.92 888.51 1432.49 892.326 C 1429.19 894.023 1427.01 887.355 1421 886.141 C 1422.56 890.789 1464.79 928.647 1469.35 936.202 C 1469.5 937.43 1469.65 938.659 1469.8 939.887 C 1463.22 933.754 1456.24 926.769 1450.01 920.273 C 1415.58 884.358 1377.4 850.097 1343.99 813.398 C 1333.19 825.704 1299.55 859.812 1287.67 869.297 C 1295.67 884.373 1302.98 898.469 1309.58 914.294 C 1298.7 908.034 1299.07 887.663 1291.58 884.54 L 1289.82 887.329 C 1287.13 887.256 1288.06 887.622 1285.92 886.289 L 1284.04 881.304 C 1278.27 880.874 1271.38 880.709 1265.76 880.097 C 1254.24 878.843 1254.71 879.226 1244.29 882.833 C 1234.61 886.184 1236.42 891.877 1227.28 889.443 C 1227.17 891.307 1226.74 891.13 1228.07 892.293 C 1232.2 895.898 1242.08 915.206 1242.08 919.355 L 1241.36 920.519 C 1240.68 919.83 1226.94 894.702 1225.35 891.698 C 1208.72 860.398 1186.66 839.18 1163.77 813.102 L 1162.21 807.607 L 1166.44 805.468 C 1167.55 808.579 1167.88 809.113 1170.57 810.665 C 1172.99 808.554 1169.4 808.153 1170.56 803.879 C 1175.98 810.073 1189.71 800.509 1197.82 801.129 C 1199.62 801.266 1209.27 793.582 1211.93 793.337 C 1220.79 792.521 1225.74 802.771 1232.88 803.927 C 1236.38 803.275 1236.91 802.333 1239.46 799.869 L 1251.44 815.148 z"/>
<path transform="translate(0,0)" fill="rgb(56,173,230)" d="M 1009.94 1705.56 C 1010.89 1710.47 1014.22 1709.66 1014.7 1713.65 C 1015.02 1716.32 1014.64 1718.33 1016.49 1720.42 C 1021.14 1720.47 1027.44 1718.68 1030.14 1719.01 C 1036.27 1719.76 1042.16 1723.5 1049.05 1723.48 C 1053.64 1723.47 1067.38 1716.33 1070 1716.67 C 1075.55 1717.4 1087.23 1720.5 1092.62 1722.37 C 1092.68 1722.39 1102.88 1719.27 1106.31 1719.19 L 1106.27 1722.61 L 1104.39 1722.27 L 1103.77 1724.56 L 1106.51 1726.86 C 1101.25 1730.42 1086.18 1738.28 1079.85 1741.84 L 1013.13 1778.84 L 935.65 1822.03 C 917.843 1831.99 884.652 1853.35 864.504 1855.79 C 849.469 1857.6 834.776 1846.03 833.311 1830.12 C 831.974 1815.6 832.038 1800.83 832.035 1785.48 L 832.226 1711.38 C 834.48 1718.7 832.67 1724.94 833.707 1732.04 C 834.787 1728.51 835.714 1720.79 837.585 1718.54 C 839.253 1720.64 839.298 1722.44 839.789 1725.1 C 840.452 1725.81 841.371 1727.26 842.412 1727.02 C 856.232 1723.81 870.531 1718.2 883.619 1712.55 C 884.405 1712.21 889.913 1713.82 891.192 1714.18 C 892.104 1713.82 893.067 1713.67 893.377 1713.09 C 893.35 1718.88 893.487 1724.67 893.787 1730.46 L 894.638 1730.94 C 894.58 1727.81 893.694 1719.29 895.895 1717.32 C 896.909 1729.28 896.188 1757.15 896.195 1770.04 C 914.335 1757.2 941.778 1743.27 961.499 1732 C 976.075 1723.67 995.303 1712.74 1009.94 1705.56 z"/>
<path transform="translate(0,0)" fill="rgb(195,110,215)" d="M 482.496 914.962 C 483.274 911.034 487.847 901.464 489.692 897.438 C 508.86 856.678 534.102 819.062 564.556 785.876 C 566.541 787.635 566.532 788.286 567.133 790.844 C 571.464 793.103 574.246 791.019 578.597 789.161 C 581.658 791.127 581.736 792.439 582.293 792.826 C 590.198 798.317 606.509 802.302 615.483 803.988 C 619.744 811.681 611.897 815.312 611.227 824.838 C 612.606 826.991 612.299 826.588 613.977 828.383 C 581.893 865.332 568.072 886.04 546.513 930.101 C 546.021 913.929 573.782 885.573 566.222 877.205 C 565.349 877.031 564.476 876.857 563.603 876.683 C 557.865 883.145 556.052 886.624 548.582 890.806 L 546.954 889.989 C 546.937 889.925 545.874 885.882 545.85 886.138 C 544.36 880.681 517.282 893.743 516.158 893.317 C 503.622 888.567 507.481 894.135 500.753 895.061 L 499.885 892.367 C 498.148 891.207 498.563 891.633 496.11 891.438 C 492.54 894.152 487.287 909.558 484.404 915.111 L 482.496 914.962 z"/>
<path transform="translate(0,0)" fill="rgb(195,110,215)" d="M 1492.23 886.935 C 1496.57 886.2 1494.99 885.587 1497.75 887.383 L 1498.5 892.122 L 1497.49 892.351 C 1493.82 890.99 1494.85 891.125 1492.23 886.935 z"/>
<path transform="translate(0,0)" fill="url(#Gradient2)" d="M 1085.81 96.3368 C 1128.71 97.202 1134 162.862 1159.62 186.449 C 1175.04 200.651 1209.2 211.823 1227.13 224.66 C 1234.96 230.269 1245.49 236.047 1246.55 246.2 C 1248.02 254.332 1249.05 264.071 1244.39 271.421 C 1226.99 296.761 1177.26 306.502 1157.68 327.279 C 1135.21 351.123 1128.09 408.204 1090.78 416.026 C 1050.5 415.571 1043 356.204 1021.31 330.527 C 1005.03 311.259 965.703 299.554 944.096 283.984 C 928.717 272.901 923.573 259.169 931.784 240.225 C 947.025 215.633 1000.18 204.109 1018.7 184.23 C 1033.93 167.887 1046.15 129.037 1060.82 110.335 C 1068.66 99.9371 1073.99 97.9405 1085.81 96.3368 z M 1027.6 255.566 C 1043.45 264.281 1056.38 269.354 1069.17 282.372 C 1076.79 290.123 1084.3 312.83 1088.73 315.729 C 1106.4 276.391 1111.32 274.847 1148.67 256.16 C 1125.06 245.06 1108.33 235.982 1096.62 212.064 C 1095.08 208.9 1089.66 198.58 1087.29 196.496 C 1073.6 232.013 1060.22 240.221 1027.6 255.566 z"/>
<path transform="translate(0,0)" fill="url(#Gradient1)" d="M 221.82 672.277 C 263.088 671.916 270.539 737.964 295.252 762.011 C 316.792 782.971 376.4 795.192 383.55 825.346 C 393.295 866.446 316.32 879.27 294.436 902.364 C 278.397 920.725 268.247 953.699 253.609 974.055 C 244.776 986.779 241.158 989.056 226.242 991.978 C 219.442 992.182 209.56 990.25 204.542 985.439 C 186.208 967.866 172.348 928.057 158.471 907.843 C 138.039 886.139 104.403 876.519 79.5649 859.61 C 65.1359 849.787 58.3967 829.617 68.5062 815.289 C 81.4668 796.92 116.404 785.752 135.349 773.457 C 141.226 769.643 150.089 766.774 154.848 760.806 C 171.218 737.843 181.262 709.772 196.991 686.3 C 203.566 676.488 211.173 673.924 221.82 672.277 z M 163.458 831.427 C 189.258 846.011 202.651 849.014 217.042 877.457 C 219.192 881.706 221.803 889.926 224.46 892.318 C 240.96 856.037 248.089 848.874 284.696 832.181 C 259.764 819.424 243.419 812.896 232.244 786.343 C 230.964 783.301 225.822 774.333 223.222 772.369 C 209.369 808.156 196.675 816.037 163.458 831.427 z"/>
</svg>