<svg width="253" height="135" viewBox="0 0 253 135" fill="none" xmlns="http://www.w3.org/2000/svg">
<mask id="path-1-outside-1_8_4" maskUnits="userSpaceOnUse" x="111" y="53" width="142" height="22" fill="black">
<rect fill="white" x="111" y="53" width="142" height="22"/>
<path d="M112.58 54.8182H117.321L122.328 67.0341H122.541L127.548 54.8182H132.289V73H128.56V61.1658H128.409L123.704 72.9112H121.165L116.46 61.1214H116.309V73H112.58V54.8182ZM152.164 63.9091C152.164 65.8918 151.789 67.5786 151.037 68.9695C150.291 70.3603 149.273 71.4227 147.983 72.1566C146.699 72.8846 145.254 73.2486 143.65 73.2486C142.035 73.2486 140.585 72.8816 139.3 72.1477C138.016 71.4138 137.001 70.3514 136.255 68.9606C135.509 67.5697 135.137 65.8859 135.137 63.9091C135.137 61.9264 135.509 60.2396 136.255 58.8487C137.001 57.4579 138.016 56.3984 139.3 55.6705C140.585 54.9366 142.035 54.5696 143.65 54.5696C145.254 54.5696 146.699 54.9366 147.983 55.6705C149.273 56.3984 150.291 57.4579 151.037 58.8487C151.789 60.2396 152.164 61.9264 152.164 63.9091ZM148.267 63.9091C148.267 62.6248 148.075 61.5417 147.69 60.6598C147.311 59.7779 146.775 59.1091 146.083 58.6534C145.391 58.1977 144.58 57.9698 143.65 57.9698C142.721 57.9698 141.91 58.1977 141.218 58.6534C140.525 59.1091 139.987 59.7779 139.602 60.6598C139.223 61.5417 139.034 62.6248 139.034 63.9091C139.034 65.1934 139.223 66.2765 139.602 67.1584C139.987 68.0402 140.525 68.709 141.218 69.1648C141.91 69.6205 142.721 69.8484 143.65 69.8484C144.58 69.8484 145.391 69.6205 146.083 69.1648C146.775 68.709 147.311 68.0402 147.69 67.1584C148.075 66.2765 148.267 65.1934 148.267 63.9091ZM157.271 54.8182L161.666 68.6321H161.835L166.238 54.8182H170.499L164.232 73H159.278L153.001 54.8182H157.271ZM176.532 54.8182V73H172.688V54.8182H176.532ZM179.695 73V54.8182H191.946V57.9876H183.539V62.32H191.316V65.4893H183.539V69.8306H191.981V73H179.695ZM200.788 73V54.8182H204.632V62.32H212.436V54.8182H216.271V73H212.436V65.4893H204.632V73H200.788ZM230.671 54.8182H234.515V66.6257C234.515 67.9515 234.199 69.1115 233.565 70.1058C232.938 71.1001 232.059 71.8755 230.929 72.4318C229.798 72.9822 228.481 73.2575 226.978 73.2575C225.469 73.2575 224.149 72.9822 223.018 72.4318C221.888 71.8755 221.009 71.1001 220.382 70.1058C219.754 69.1115 219.441 67.9515 219.441 66.6257V54.8182H223.285V66.2972C223.285 66.9897 223.436 67.6052 223.737 68.1438C224.045 68.6824 224.477 69.1056 225.034 69.4134C225.59 69.7211 226.238 69.875 226.978 69.875C227.724 69.875 228.372 69.7211 228.922 69.4134C229.478 69.1056 229.908 68.6824 230.209 68.1438C230.517 67.6052 230.671 66.9897 230.671 66.2972V54.8182ZM237.678 73V54.8182H244.958C246.295 54.8182 247.411 55.0165 248.305 55.413C249.198 55.8095 249.87 56.36 250.32 57.0643C250.77 57.7627 250.995 58.5676 250.995 59.479C250.995 60.1893 250.853 60.8137 250.569 61.3523C250.284 61.8849 249.894 62.3229 249.397 62.6662C248.905 63.0036 248.343 63.2433 247.71 63.3853V63.5629C248.402 63.5924 249.05 63.7878 249.654 64.1488C250.264 64.5098 250.758 65.0159 251.137 65.6669C251.516 66.312 251.705 67.0814 251.705 67.9751C251.705 68.9399 251.465 69.801 250.986 70.5586C250.512 71.3103 249.811 71.9051 248.882 72.343C247.953 72.781 246.807 73 245.446 73H237.678ZM241.522 69.8572H244.656C245.727 69.8572 246.508 69.6531 247 69.2447C247.491 68.8304 247.737 68.2799 247.737 67.5934C247.737 67.0903 247.615 66.6464 247.373 66.2617C247.13 65.877 246.784 65.5752 246.334 65.3562C245.89 65.1372 245.36 65.0277 244.745 65.0277H241.522V69.8572ZM241.522 62.4265H244.372C244.899 62.4265 245.366 62.3348 245.775 62.1513C246.189 61.9619 246.514 61.6955 246.751 61.3523C246.994 61.009 247.115 60.5977 247.115 60.1183C247.115 59.4613 246.881 58.9316 246.414 58.5291C245.952 58.1267 245.295 57.9254 244.443 57.9254H241.522V62.4265Z"/>
</mask>
<path d="M112.58 54.8182H117.321L122.328 67.0341H122.541L127.548 54.8182H132.289V73H128.56V61.1658H128.409L123.704 72.9112H121.165L116.46 61.1214H116.309V73H112.58V54.8182ZM152.164 63.9091C152.164 65.8918 151.789 67.5786 151.037 68.9695C150.291 70.3603 149.273 71.4227 147.983 72.1566C146.699 72.8846 145.254 73.2486 143.65 73.2486C142.035 73.2486 140.585 72.8816 139.3 72.1477C138.016 71.4138 137.001 70.3514 136.255 68.9606C135.509 67.5697 135.137 65.8859 135.137 63.9091C135.137 61.9264 135.509 60.2396 136.255 58.8487C137.001 57.4579 138.016 56.3984 139.3 55.6705C140.585 54.9366 142.035 54.5696 143.65 54.5696C145.254 54.5696 146.699 54.9366 147.983 55.6705C149.273 56.3984 150.291 57.4579 151.037 58.8487C151.789 60.2396 152.164 61.9264 152.164 63.9091ZM148.267 63.9091C148.267 62.6248 148.075 61.5417 147.69 60.6598C147.311 59.7779 146.775 59.1091 146.083 58.6534C145.391 58.1977 144.58 57.9698 143.65 57.9698C142.721 57.9698 141.91 58.1977 141.218 58.6534C140.525 59.1091 139.987 59.7779 139.602 60.6598C139.223 61.5417 139.034 62.6248 139.034 63.9091C139.034 65.1934 139.223 66.2765 139.602 67.1584C139.987 68.0402 140.525 68.709 141.218 69.1648C141.91 69.6205 142.721 69.8484 143.65 69.8484C144.58 69.8484 145.391 69.6205 146.083 69.1648C146.775 68.709 147.311 68.0402 147.69 67.1584C148.075 66.2765 148.267 65.1934 148.267 63.9091ZM157.271 54.8182L161.666 68.6321H161.835L166.238 54.8182H170.499L164.232 73H159.278L153.001 54.8182H157.271ZM176.532 54.8182V73H172.688V54.8182H176.532ZM179.695 73V54.8182H191.946V57.9876H183.539V62.32H191.316V65.4893H183.539V69.8306H191.981V73H179.695ZM200.788 73V54.8182H204.632V62.32H212.436V54.8182H216.271V73H212.436V65.4893H204.632V73H200.788ZM230.671 54.8182H234.515V66.6257C234.515 67.9515 234.199 69.1115 233.565 70.1058C232.938 71.1001 232.059 71.8755 230.929 72.4318C229.798 72.9822 228.481 73.2575 226.978 73.2575C225.469 73.2575 224.149 72.9822 223.018 72.4318C221.888 71.8755 221.009 71.1001 220.382 70.1058C219.754 69.1115 219.441 67.9515 219.441 66.6257V54.8182H223.285V66.2972C223.285 66.9897 223.436 67.6052 223.737 68.1438C224.045 68.6824 224.477 69.1056 225.034 69.4134C225.59 69.7211 226.238 69.875 226.978 69.875C227.724 69.875 228.372 69.7211 228.922 69.4134C229.478 69.1056 229.908 68.6824 230.209 68.1438C230.517 67.6052 230.671 66.9897 230.671 66.2972V54.8182ZM237.678 73V54.8182H244.958C246.295 54.8182 247.411 55.0165 248.305 55.413C249.198 55.8095 249.87 56.36 250.32 57.0643C250.77 57.7627 250.995 58.5676 250.995 59.479C250.995 60.1893 250.853 60.8137 250.569 61.3523C250.284 61.8849 249.894 62.3229 249.397 62.6662C248.905 63.0036 248.343 63.2433 247.71 63.3853V63.5629C248.402 63.5924 249.05 63.7878 249.654 64.1488C250.264 64.5098 250.758 65.0159 251.137 65.6669C251.516 66.312 251.705 67.0814 251.705 67.9751C251.705 68.9399 251.465 69.801 250.986 70.5586C250.512 71.3103 249.811 71.9051 248.882 72.343C247.953 72.781 246.807 73 245.446 73H237.678ZM241.522 69.8572H244.656C245.727 69.8572 246.508 69.6531 247 69.2447C247.491 68.8304 247.737 68.2799 247.737 67.5934C247.737 67.0903 247.615 66.6464 247.373 66.2617C247.13 65.877 246.784 65.5752 246.334 65.3562C245.89 65.1372 245.36 65.0277 244.745 65.0277H241.522V69.8572ZM241.522 62.4265H244.372C244.899 62.4265 245.366 62.3348 245.775 62.1513C246.189 61.9619 246.514 61.6955 246.751 61.3523C246.994 61.009 247.115 60.5977 247.115 60.1183C247.115 59.4613 246.881 58.9316 246.414 58.5291C245.952 58.1267 245.295 57.9254 244.443 57.9254H241.522V62.4265Z" fill="white"/>
<path d="M112.58 54.8182V53.8182H111.58V54.8182H112.58ZM117.321 54.8182L118.246 54.4389L117.992 53.8182H117.321V54.8182ZM122.328 67.0341L121.403 67.4134L121.657 68.0341H122.328V67.0341ZM122.541 67.0341V68.0341H123.212L123.466 67.4134L122.541 67.0341ZM127.548 54.8182V53.8182H126.877L126.623 54.4389L127.548 54.8182ZM132.289 54.8182H133.289V53.8182H132.289V54.8182ZM132.289 73V74H133.289V73H132.289ZM128.56 73H127.56V74H128.56V73ZM128.56 61.1658H129.56V60.1658H128.56V61.1658ZM128.409 61.1658V60.1658H127.733L127.481 60.794L128.409 61.1658ZM123.704 72.9112V73.9112H124.381L124.632 73.2831L123.704 72.9112ZM121.165 72.9112L120.236 73.2819L120.488 73.9112H121.165V72.9112ZM116.46 61.1214L117.389 60.7508L117.137 60.1214H116.46V61.1214ZM116.309 61.1214V60.1214H115.309V61.1214H116.309ZM116.309 73V74H117.309V73H116.309ZM112.58 73H111.58V74H112.58V73ZM112.58 54.8182V55.8182H117.321V54.8182V53.8182H112.58V54.8182ZM117.321 54.8182L116.396 55.1974L121.403 67.4134L122.328 67.0341L123.253 66.6548L118.246 54.4389L117.321 54.8182ZM122.328 67.0341V68.0341H122.541V67.0341V66.0341H122.328V67.0341ZM122.541 67.0341L123.466 67.4134L128.474 55.1974L127.548 54.8182L126.623 54.4389L121.616 66.6548L122.541 67.0341ZM127.548 54.8182V55.8182H132.289V54.8182V53.8182H127.548V54.8182ZM132.289 54.8182H131.289V73H132.289H133.289V54.8182H132.289ZM132.289 73V72H128.56V73V74H132.289V73ZM128.56 73H129.56V61.1658H128.56H127.56V73H128.56ZM128.56 61.1658V60.1658H128.409V61.1658V62.1658H128.56V61.1658ZM128.409 61.1658L127.481 60.794L122.776 72.5393L123.704 72.9112L124.632 73.2831L129.338 61.5377L128.409 61.1658ZM123.704 72.9112V71.9112H121.165V72.9112V73.9112H123.704V72.9112ZM121.165 72.9112L122.094 72.5406L117.389 60.7508L116.46 61.1214L115.531 61.4921L120.236 73.2819L121.165 72.9112ZM116.46 61.1214V60.1214H116.309V61.1214V62.1214H116.46V61.1214ZM116.309 61.1214H115.309V73H116.309H117.309V61.1214H116.309ZM116.309 73V72H112.58V73V74H116.309V73ZM112.58 73H113.58V54.8182H112.58H111.58V73H112.58ZM151.037 68.9695L150.157 68.494L150.156 68.4969L151.037 68.9695ZM147.983 72.1566L148.476 73.0266L148.477 73.0258L147.983 72.1566ZM139.3 72.1477L139.796 71.2795L139.3 72.1477ZM136.255 68.9606L135.374 69.4331V69.4331L136.255 68.9606ZM136.255 58.8487L137.137 59.3213V59.3213L136.255 58.8487ZM139.3 55.6705L139.793 56.5404L139.796 56.5387L139.3 55.6705ZM147.983 55.6705L147.487 56.5387L147.491 56.5414L147.983 55.6705ZM151.037 58.8487L150.156 59.3213L150.157 59.3242L151.037 58.8487ZM147.69 60.6598L146.771 61.0545L146.773 61.0597L147.69 60.6598ZM146.083 58.6534L145.533 59.4887V59.4887L146.083 58.6534ZM141.218 58.6534L141.768 59.4887V59.4887L141.218 58.6534ZM139.602 60.6598L138.686 60.2599L138.683 60.2651L139.602 60.6598ZM139.602 67.1584L138.683 67.5531L138.686 67.5582L139.602 67.1584ZM141.218 69.1648L141.768 68.3294V68.3294L141.218 69.1648ZM146.083 69.1648L145.533 68.3294V68.3294L146.083 69.1648ZM147.69 67.1584L146.773 66.7585L146.771 66.7637L147.69 67.1584ZM152.164 63.9091H151.164C151.164 65.7672 150.812 67.2817 150.157 68.494L151.037 68.9695L151.917 69.4449C152.765 67.8755 153.164 66.0164 153.164 63.9091H152.164ZM151.037 68.9695L150.156 68.4969C149.493 69.7327 148.604 70.6526 147.488 71.2874L147.983 72.1566L148.477 73.0258C149.942 72.1928 151.089 70.9879 151.918 69.442L151.037 68.9695ZM147.983 72.1566L147.49 71.2866C146.369 71.9221 145.097 72.2486 143.65 72.2486V73.2486V74.2486C145.412 74.2486 147.028 73.8471 148.476 73.0266L147.983 72.1566ZM143.65 73.2486V72.2486C142.192 72.2486 140.916 71.9192 139.796 71.2795L139.3 72.1477L138.804 73.016C140.253 73.8441 141.877 74.2486 143.65 74.2486V73.2486ZM139.3 72.1477L139.796 71.2795C138.686 70.645 137.8 69.725 137.137 68.488L136.255 68.9606L135.374 69.4331C136.202 70.9779 137.346 72.1826 138.804 73.016L139.3 72.1477ZM136.255 68.9606L137.137 68.488C136.486 67.2747 136.137 65.7619 136.137 63.9091H135.137H134.137C134.137 66.0099 134.533 67.8647 135.374 69.4331L136.255 68.9606ZM135.137 63.9091H136.137C136.137 62.0498 136.486 60.5342 137.137 59.3213L136.255 58.8487L135.374 58.3762C134.533 59.945 134.137 61.8029 134.137 63.9091H135.137ZM136.255 58.8487L137.137 59.3213C137.799 58.0849 138.685 57.1688 139.793 56.5404L139.3 55.6705L138.807 54.8005C137.347 55.6281 136.202 56.8308 135.374 58.3762L136.255 58.8487ZM139.3 55.6705L139.796 56.5387C140.916 55.899 142.192 55.5696 143.65 55.5696V54.5696V53.5696C141.877 53.5696 140.253 53.9741 138.804 54.8022L139.3 55.6705ZM143.65 54.5696V55.5696C145.096 55.5696 146.366 55.8983 147.487 56.5387L147.983 55.6705L148.479 54.8022C147.031 53.9748 145.413 53.5696 143.65 53.5696V54.5696ZM147.983 55.6705L147.491 56.5414C148.606 57.1701 149.493 58.0861 150.156 59.3213L151.037 58.8487L151.918 58.3762C151.089 56.8297 149.941 55.6268 148.474 54.7995L147.983 55.6705ZM151.037 58.8487L150.157 59.3242C150.812 60.5364 151.164 62.051 151.164 63.9091H152.164H153.164C153.164 61.8018 152.765 59.9427 151.917 58.3733L151.037 58.8487ZM148.267 63.9091H149.267C149.267 62.5308 149.061 61.3026 148.606 60.2599L147.69 60.6598L146.773 61.0597C147.088 61.7807 147.267 62.7187 147.267 63.9091H148.267ZM147.69 60.6598L148.609 60.2651C148.165 59.2325 147.513 58.3976 146.633 57.8181L146.083 58.6534L145.533 59.4887C146.038 59.8207 146.457 60.3234 146.771 61.0545L147.69 60.6598ZM146.083 58.6534L146.633 57.8181C145.758 57.2422 144.751 56.9698 143.65 56.9698V57.9698V58.9698C144.409 58.9698 145.023 59.1531 145.533 59.4887L146.083 58.6534ZM143.65 57.9698V56.9698C142.55 56.9698 141.543 57.2422 140.668 57.8181L141.218 58.6534L141.768 59.4887C142.278 59.1531 142.892 58.9698 143.65 58.9698V57.9698ZM141.218 58.6534L140.668 57.8181C139.789 58.3966 139.135 59.2296 138.686 60.2599L139.602 60.6598L140.519 61.0597C140.839 60.3262 141.262 59.8217 141.768 59.4887L141.218 58.6534ZM139.602 60.6598L138.683 60.2651C138.236 61.3062 138.034 62.5325 138.034 63.9091H139.034H140.034C140.034 62.7171 140.211 61.7771 140.521 61.0545L139.602 60.6598ZM139.034 63.9091H138.034C138.034 65.2857 138.236 66.512 138.683 67.553L139.602 67.1584L140.521 66.7637C140.211 66.041 140.034 65.1011 140.034 63.9091H139.034ZM139.602 67.1584L138.686 67.5582C139.135 68.5886 139.789 69.4216 140.668 70.0001L141.218 69.1648L141.768 68.3294C141.262 67.9965 140.839 67.4919 140.519 66.7585L139.602 67.1584ZM141.218 69.1648L140.668 70.0001C141.543 70.5759 142.55 70.8484 143.65 70.8484V69.8484V68.8484C142.892 68.8484 142.278 68.6651 141.768 68.3294L141.218 69.1648ZM143.65 69.8484V70.8484C144.751 70.8484 145.758 70.5759 146.633 70.0001L146.083 69.1648L145.533 68.3294C145.023 68.6651 144.409 68.8484 143.65 68.8484V69.8484ZM146.083 69.1648L146.633 70.0001C147.513 69.4206 148.165 68.5857 148.609 67.553L147.69 67.1584L146.771 66.7637C146.457 67.4948 146.038 67.9975 145.533 68.3294L146.083 69.1648ZM147.69 67.1584L148.606 67.5582C149.061 66.5156 149.267 65.2874 149.267 63.9091H148.267H147.267C147.267 65.0995 147.088 66.0375 146.773 66.7585L147.69 67.1584ZM157.271 54.8182L158.224 54.515L158.003 53.8182H157.271V54.8182ZM161.666 68.6321L160.713 68.9353L160.935 69.6321H161.666V68.6321ZM161.835 68.6321V69.6321H162.565L162.787 68.9358L161.835 68.6321ZM166.238 54.8182V53.8182H165.507L165.285 54.5145L166.238 54.8182ZM170.499 54.8182L171.445 55.1441L171.902 53.8182H170.499V54.8182ZM164.232 73V74H164.945L165.177 73.3259L164.232 73ZM159.278 73L158.332 73.3263L158.565 74H159.278V73ZM153.001 54.8182V53.8182H151.598L152.056 55.1445L153.001 54.8182ZM157.271 54.8182L156.318 55.1213L160.713 68.9353L161.666 68.6321L162.619 68.3289L158.224 54.515L157.271 54.8182ZM161.666 68.6321V69.6321H161.835V68.6321V67.6321H161.666V68.6321ZM161.835 68.6321L162.787 68.9358L167.191 55.1219L166.238 54.8182L165.285 54.5145L160.882 68.3284L161.835 68.6321ZM166.238 54.8182V55.8182H170.499V54.8182V53.8182H166.238V54.8182ZM170.499 54.8182L169.554 54.4923L163.286 72.6741L164.232 73L165.177 73.3259L171.445 55.1441L170.499 54.8182ZM164.232 73V72H159.278V73V74H164.232V73ZM159.278 73L160.223 72.6737L153.946 54.4919L153.001 54.8182L152.056 55.1445L158.332 73.3263L159.278 73ZM153.001 54.8182V55.8182H157.271V54.8182V53.8182H153.001V54.8182ZM176.532 54.8182H177.532V53.8182H176.532V54.8182ZM176.532 73V74H177.532V73H176.532ZM172.688 73H171.688V74H172.688V73ZM172.688 54.8182V53.8182H171.688V54.8182H172.688ZM176.532 54.8182H175.532V73H176.532H177.532V54.8182H176.532ZM176.532 73V72H172.688V73V74H176.532V73ZM172.688 73H173.688V54.8182H172.688H171.688V73H172.688ZM172.688 54.8182V55.8182H176.532V54.8182V53.8182H172.688V54.8182ZM179.695 73H178.695V74H179.695V73ZM179.695 54.8182V53.8182H178.695V54.8182H179.695ZM191.946 54.8182H192.946V53.8182H191.946V54.8182ZM191.946 57.9876V58.9876H192.946V57.9876H191.946ZM183.539 57.9876V56.9876H182.539V57.9876H183.539ZM183.539 62.32H182.539V63.32H183.539V62.32ZM191.316 62.32H192.316V61.32H191.316V62.32ZM191.316 65.4893V66.4893H192.316V65.4893H191.316ZM183.539 65.4893V64.4893H182.539V65.4893H183.539ZM183.539 69.8306H182.539V70.8306H183.539V69.8306ZM191.981 69.8306H192.981V68.8306H191.981V69.8306ZM191.981 73V74H192.981V73H191.981ZM179.695 73H180.695V54.8182H179.695H178.695V73H179.695ZM179.695 54.8182V55.8182H191.946V54.8182V53.8182H179.695V54.8182ZM191.946 54.8182H190.946V57.9876H191.946H192.946V54.8182H191.946ZM191.946 57.9876V56.9876H183.539V57.9876V58.9876H191.946V57.9876ZM183.539 57.9876H182.539V62.32H183.539H184.539V57.9876H183.539ZM183.539 62.32V63.32H191.316V62.32V61.32H183.539V62.32ZM191.316 62.32H190.316V65.4893H191.316H192.316V62.32H191.316ZM191.316 65.4893V64.4893H183.539V65.4893V66.4893H191.316V65.4893ZM183.539 65.4893H182.539V69.8306H183.539H184.539V65.4893H183.539ZM183.539 69.8306V70.8306H191.981V69.8306V68.8306H183.539V69.8306ZM191.981 69.8306H190.981V73H191.981H192.981V69.8306H191.981ZM191.981 73V72H179.695V73V74H191.981V73ZM200.788 73H199.788V74H200.788V73ZM200.788 54.8182V53.8182H199.788V54.8182H200.788ZM204.632 54.8182H205.632V53.8182H204.632V54.8182ZM204.632 62.32H203.632V63.32H204.632V62.32ZM212.436 62.32V63.32H213.436V62.32H212.436ZM212.436 54.8182V53.8182H211.436V54.8182H212.436ZM216.271 54.8182H217.271V53.8182H216.271V54.8182ZM216.271 73V74H217.271V73H216.271ZM212.436 73H211.436V74H212.436V73ZM212.436 65.4893H213.436V64.4893H212.436V65.4893ZM204.632 65.4893V64.4893H203.632V65.4893H204.632ZM204.632 73V74H205.632V73H204.632ZM200.788 73H201.788V54.8182H200.788H199.788V73H200.788ZM200.788 54.8182V55.8182H204.632V54.8182V53.8182H200.788V54.8182ZM204.632 54.8182H203.632V62.32H204.632H205.632V54.8182H204.632ZM204.632 62.32V63.32H212.436V62.32V61.32H204.632V62.32ZM212.436 62.32H213.436V54.8182H212.436H211.436V62.32H212.436ZM212.436 54.8182V55.8182H216.271V54.8182V53.8182H212.436V54.8182ZM216.271 54.8182H215.271V73H216.271H217.271V54.8182H216.271ZM216.271 73V72H212.436V73V74H216.271V73ZM212.436 73H213.436V65.4893H212.436H211.436V73H212.436ZM212.436 65.4893V64.4893H204.632V65.4893V66.4893H212.436V65.4893ZM204.632 65.4893H203.632V73H204.632H205.632V65.4893H204.632ZM204.632 73V72H200.788V73V74H204.632V73ZM230.671 54.8182V53.8182H229.671V54.8182H230.671ZM234.515 54.8182H235.515V53.8182H234.515V54.8182ZM233.565 70.1058L232.722 69.5686L232.72 69.5722L233.565 70.1058ZM230.929 72.4318L231.366 73.3309L231.37 73.329L230.929 72.4318ZM223.018 72.4318L222.577 73.3291L222.581 73.3309L223.018 72.4318ZM220.382 70.1058L219.536 70.6394V70.6394L220.382 70.1058ZM219.441 54.8182V53.8182H218.441V54.8182H219.441ZM223.285 54.8182H224.285V53.8182H223.285V54.8182ZM223.737 68.1438L222.865 68.6327L222.869 68.64L223.737 68.1438ZM225.034 69.4134L224.55 70.2884V70.2884L225.034 69.4134ZM228.922 69.4134L228.438 68.5383L228.434 68.5405L228.922 69.4134ZM230.209 68.1438L229.341 67.6477L229.337 67.6549L230.209 68.1438ZM230.671 54.8182V55.8182H234.515V54.8182V53.8182H230.671V54.8182ZM234.515 54.8182H233.515V66.6257H234.515H235.515V54.8182H234.515ZM234.515 66.6257H233.515C233.515 67.7856 233.24 68.7543 232.722 69.5686L233.565 70.1058L234.409 70.643C235.157 69.4688 235.515 68.1174 235.515 66.6257H234.515ZM233.565 70.1058L232.72 69.5722C232.198 70.3991 231.464 71.0537 230.487 71.5346L230.929 72.4318L231.37 73.329C232.654 72.6972 233.678 71.8012 234.411 70.6394L233.565 70.1058ZM230.929 72.4318L230.491 71.5327C229.521 72.005 228.359 72.2575 226.978 72.2575V73.2575V74.2575C228.604 74.2575 230.075 73.9595 231.366 73.3309L230.929 72.4318ZM226.978 73.2575V72.2575C225.59 72.2575 224.426 72.0048 223.456 71.5327L223.018 72.4318L222.581 73.3309C223.872 73.9597 225.347 74.2575 226.978 74.2575V73.2575ZM223.018 72.4318L223.46 71.5346C222.483 71.0537 221.749 70.3991 221.227 69.5722L220.382 70.1058L219.536 70.6394C220.269 71.8012 221.293 72.6972 222.577 73.329L223.018 72.4318ZM220.382 70.1058L221.227 69.5722C220.713 68.7574 220.441 67.7874 220.441 66.6257H219.441H218.441C218.441 68.1155 218.795 69.4656 219.536 70.6394L220.382 70.1058ZM219.441 66.6257H220.441V54.8182H219.441H218.441V66.6257H219.441ZM219.441 54.8182V55.8182H223.285V54.8182V53.8182H219.441V54.8182ZM223.285 54.8182H222.285V66.2972H223.285H224.285V54.8182H223.285ZM223.285 66.2972H222.285C222.285 67.1397 222.47 67.9273 222.865 68.6327L223.737 68.1438L224.61 67.6549C224.401 67.2832 224.285 66.8397 224.285 66.2972H223.285ZM223.737 68.1438L222.869 68.64C223.27 69.3418 223.837 69.8942 224.55 70.2884L225.034 69.4134L225.518 68.5383C225.118 68.3169 224.82 68.023 224.606 67.6477L223.737 68.1438ZM225.034 69.4134L224.55 70.2884C225.277 70.6906 226.097 70.875 226.978 70.875V69.875V68.875C226.38 68.875 225.903 68.7516 225.518 68.5383L225.034 69.4134ZM226.978 69.875V70.875C227.863 70.875 228.686 70.6914 229.41 70.2862L228.922 69.4134L228.434 68.5405C228.058 68.7509 227.584 68.875 226.978 68.875V69.875ZM228.922 69.4134L229.406 70.2884C230.12 69.8934 230.686 69.3387 231.082 68.6327L230.209 68.1438L229.337 67.6549C229.129 68.0262 228.837 68.3178 228.438 68.5383L228.922 69.4134ZM230.209 68.1438L231.078 68.64C231.481 67.9333 231.671 67.143 231.671 66.2972H230.671H229.671C229.671 66.8364 229.553 67.2772 229.341 67.6477L230.209 68.1438ZM230.671 66.2972H231.671V54.8182H230.671H229.671V66.2972H230.671ZM237.678 73H236.678V74H237.678V73ZM237.678 54.8182V53.8182H236.678V54.8182H237.678ZM248.305 55.413L247.899 56.3271V56.3271L248.305 55.413ZM250.32 57.0643L249.477 57.6025L249.479 57.6058L250.32 57.0643ZM250.569 61.3523L251.451 61.8229L251.453 61.8188L250.569 61.3523ZM249.397 62.6662L249.963 63.4905L249.965 63.4891L249.397 62.6662ZM247.71 63.3853L247.491 62.4095L246.71 62.5848V63.3853H247.71ZM247.71 63.5629H246.71V64.521L247.667 64.5619L247.71 63.5629ZM249.654 64.1488L249.141 65.007L249.145 65.0092L249.654 64.1488ZM251.137 65.6669L250.272 66.1698L250.274 66.1732L251.137 65.6669ZM250.986 70.5586L250.141 70.0239L250.14 70.0256L250.986 70.5586ZM248.882 72.343L248.455 71.4385V71.4385L248.882 72.343ZM241.522 69.8572H240.522V70.8572H241.522V69.8572ZM247 69.2447L247.639 70.0137L247.644 70.0091L247 69.2447ZM247.373 66.2617L246.527 66.7952V66.7952L247.373 66.2617ZM246.334 65.3562L245.891 66.253L245.896 66.2553L246.334 65.3562ZM241.522 65.0277V64.0277H240.522V65.0277H241.522ZM241.522 62.4265H240.522V63.4265H241.522V62.4265ZM245.775 62.1513L246.184 63.0635L246.19 63.0608L245.775 62.1513ZM246.751 61.3523L245.934 60.775L245.928 60.7845L246.751 61.3523ZM246.414 58.5291L245.757 59.2829L245.761 59.287L246.414 58.5291ZM241.522 57.9254V56.9254H240.522V57.9254H241.522ZM237.678 73H238.678V54.8182H237.678H236.678V73H237.678ZM237.678 54.8182V55.8182H244.958V54.8182V53.8182H237.678V54.8182ZM244.958 54.8182V55.8182C246.204 55.8182 247.171 56.004 247.899 56.3271L248.305 55.413L248.71 54.4989C247.651 54.0289 246.387 53.8182 244.958 53.8182V54.8182ZM248.305 55.413L247.899 56.3271C248.645 56.6578 249.15 57.0903 249.477 57.6025L250.32 57.0643L251.163 56.526C250.59 55.6297 249.752 54.9613 248.71 54.4989L248.305 55.413ZM250.32 57.0643L249.479 57.6058C249.815 58.1271 249.995 58.7402 249.995 59.479H250.995H251.995C251.995 58.3949 251.724 57.3982 251.161 56.5228L250.32 57.0643ZM250.995 59.479H249.995C249.995 60.0538 249.881 60.5132 249.684 60.8857L250.569 61.3523L251.453 61.8188C251.825 61.1142 251.995 60.3248 251.995 59.479H250.995ZM250.569 61.3523L249.686 60.8817C249.477 61.2734 249.194 61.5906 248.828 61.8433L249.397 62.6662L249.965 63.4891C250.593 63.0552 251.092 62.4965 251.451 61.8229L250.569 61.3523ZM249.397 62.6662L248.831 61.8419C248.453 62.1009 248.011 62.2929 247.491 62.4095L247.71 63.3853L247.929 64.3611C248.675 64.1936 249.357 63.9062 249.963 63.4905L249.397 62.6662ZM247.71 63.3853H246.71V63.5629H247.71H248.71V63.3853H247.71ZM247.71 63.5629L247.667 64.5619C248.191 64.5843 248.678 64.73 249.141 65.007L249.654 64.1488L250.167 63.2906C249.423 62.8455 248.614 62.6006 247.753 62.5638L247.71 63.5629ZM249.654 64.1488L249.145 65.0092C249.598 65.2778 249.974 65.6566 250.272 66.1698L251.137 65.6669L252.001 65.164C251.542 64.3751 250.929 63.7419 250.164 63.2884L249.654 64.1488ZM251.137 65.6669L250.274 66.1732C250.547 66.6374 250.705 67.2247 250.705 67.9751H251.705H252.705C252.705 66.9382 252.484 65.9867 251.999 65.1606L251.137 65.6669ZM251.705 67.9751H250.705C250.705 68.7656 250.511 69.4385 250.141 70.0239L250.986 70.5586L251.831 71.0933C252.419 70.1635 252.705 69.1142 252.705 67.9751H251.705ZM250.986 70.5586L250.14 70.0256C249.783 70.5919 249.24 71.0688 248.455 71.4385L248.882 72.343L249.308 73.2476C250.382 72.7413 251.242 72.0286 251.832 71.0916L250.986 70.5586ZM248.882 72.343L248.455 71.4385C247.695 71.7967 246.706 72 245.446 72V73V74C246.909 74 248.21 73.7654 249.308 73.2476L248.882 72.343ZM245.446 73V72H237.678V73V74H245.446V73ZM241.522 69.8572V70.8572H244.656V69.8572V68.8572H241.522V69.8572ZM244.656 69.8572V70.8572C245.815 70.8572 246.881 70.6434 247.639 70.0137L247 69.2447L246.36 68.4757C246.135 68.6627 245.639 68.8572 244.656 68.8572V69.8572ZM247 69.2447L247.644 70.0091C248.378 69.3905 248.737 68.5517 248.737 67.5934H247.737H246.737C246.737 68.0082 246.604 68.2703 246.355 68.4802L247 69.2447ZM247.737 67.5934H248.737C248.737 66.9222 248.572 66.2893 248.218 65.7282L247.373 66.2617L246.527 66.7952C246.658 67.0036 246.737 67.2584 246.737 67.5934H247.737ZM247.373 66.2617L248.218 65.7282C247.867 65.1705 247.371 64.7491 246.772 64.4571L246.334 65.3562L245.896 66.2553C246.196 66.4012 246.393 66.5835 246.527 66.7952L247.373 66.2617ZM246.334 65.3562L246.776 64.4594C246.165 64.158 245.477 64.0277 244.745 64.0277V65.0277V66.0277C245.243 66.0277 245.614 66.1164 245.891 66.253L246.334 65.3562ZM244.745 65.0277V64.0277H241.522V65.0277V66.0277H244.745V65.0277ZM241.522 65.0277H240.522V69.8572H241.522H242.522V65.0277H241.522ZM241.522 62.4265V63.4265H244.372V62.4265V61.4265H241.522V62.4265ZM244.372 62.4265V63.4265C245.015 63.4265 245.626 63.3141 246.184 63.0634L245.775 62.1513L245.365 61.2391C245.106 61.3554 244.782 61.4265 244.372 61.4265V62.4265ZM245.775 62.1513L246.19 63.0608C246.753 62.8035 247.226 62.4254 247.574 61.92L246.751 61.3523L245.928 60.7845C245.803 60.9656 245.625 61.1203 245.359 61.2418L245.775 62.1513ZM246.751 61.3523L247.568 61.9295C247.946 61.3944 248.115 60.7743 248.115 60.1183H247.115H246.115C246.115 60.421 246.042 60.6236 245.934 60.775L246.751 61.3523ZM247.115 60.1183H248.115C248.115 59.1916 247.77 58.3772 247.066 57.7712L246.414 58.5291L245.761 59.287C245.992 59.4859 246.115 59.731 246.115 60.1183H247.115ZM246.414 58.5291L247.071 57.7753C246.367 57.1615 245.442 56.9254 244.443 56.9254V57.9254V58.9254C245.148 58.9254 245.537 59.0918 245.757 59.2829L246.414 58.5291ZM244.443 57.9254V56.9254H241.522V57.9254V58.9254H244.443V57.9254ZM241.522 57.9254H240.522V62.4265H241.522H242.522V57.9254H241.522Z" fill="#1D1D1D" mask="url(#path-1-outside-1_8_4)"/>
<g filter="url(#filter0_d_8_4)">
<rect x="70" y="62" width="3" height="3" rx="1.5" fill="black"/>
<rect x="70.5" y="62.5" width="2" height="2" rx="1" stroke="#1D1D1D"/>
</g>
<path d="M77.1905 80.005C82.6328 76.7508 86.2768 70.8009 86.2768 64C86.2768 53.7064 77.9327 45.3609 67.6391 45.3609C57.3441 45.3609 49 53.7064 49 64C49 74.2936 57.3441 82.6391 67.6391 82.6391H91V80.0051L77.1905 80.005ZM75.1256 54.9663C77.0572 53.8512 79.5259 54.5126 80.6409 56.4442C81.756 58.3758 81.0946 60.8457 79.1631 61.9608C77.2315 63.0746 74.7628 62.4133 73.6478 60.4829C72.5314 58.5501 73.1941 56.0814 75.1256 54.9663ZM73.6465 67.4197C74.7629 65.4881 77.2315 64.8268 79.1631 65.9418C81.0947 67.0582 81.7561 69.5269 80.641 71.4584C79.526 73.39 77.0572 74.0514 75.1244 72.9363C73.1941 71.8212 72.5314 69.3512 73.6465 67.4197ZM67.6391 48.937C69.8693 48.937 71.6766 50.7442 71.6766 52.9745C71.6766 55.2048 69.8693 57.0145 67.6391 57.0145C65.4088 57.0145 63.599 55.2047 63.599 52.9745C63.599 50.7443 65.4088 48.937 67.6391 48.937ZM69.5027 64C69.5027 65.0306 68.6683 65.8637 67.6391 65.8637C66.6085 65.8637 65.7754 65.0306 65.7754 64C65.7754 62.9694 66.6085 62.1363 67.6391 62.1363C68.6683 62.1363 69.5027 62.9695 69.5027 64ZM54.6358 56.4442C55.7509 54.5126 58.2208 53.8513 60.1524 54.9663C62.084 56.0814 62.7453 58.5501 61.6303 60.4829C60.5151 62.4132 58.0453 63.0758 56.1137 61.9608C54.1834 60.8457 53.5207 58.3758 54.6358 56.4442ZM60.1537 72.9363C58.2208 74.0515 55.7522 73.39 54.6358 71.4584C53.522 69.5269 54.1833 67.057 56.1137 65.9405C58.0453 64.8254 60.5151 65.488 61.6303 67.4196C62.7454 69.3512 62.084 71.8212 60.1537 72.9363ZM63.599 74.9268C63.599 72.6965 65.4089 70.8881 67.6391 70.8881C69.8692 70.8881 71.6766 72.6966 71.6766 74.9268C71.6766 77.157 69.8693 78.9655 67.6391 78.9655C65.4088 78.9655 63.599 77.1571 63.599 74.9268Z" fill="#FF385C"/>
<defs>
<filter id="filter0_d_8_4" x="0" y="-8" width="143" height="143" filterUnits="userSpaceOnUse" color-interpolation-filters="sRGB">
<feFlood flood-opacity="0" result="BackgroundImageFix"/>
<feColorMatrix in="SourceAlpha" type="matrix" values="0 0 0 0 0 0 0 0 0 0 0 0 0 0 0 0 0 0 127 0" result="hardAlpha"/>
<feMorphology radius="20" operator="dilate" in="SourceAlpha" result="effect1_dropShadow_8_4"/>
<feOffset/>
<feGaussianBlur stdDeviation="25"/>
<feComposite in2="hardAlpha" operator="out"/>
<feColorMatrix type="matrix" values="0 0 0 0 1 0 0 0 0 0.219608 0 0 0 0 0.235294 0 0 0 0.5 0"/>
<feBlend mode="normal" in2="BackgroundImageFix" result="effect1_dropShadow_8_4"/>
<feBlend mode="normal" in="SourceGraphic" in2="effect1_dropShadow_8_4" result="shape"/>
</filter>
</defs>
</svg>
